<svg width="298" height="68" viewBox="0 0 298 68" fill="none" xmlns="http://www.w3.org/2000/svg">
<path d="M292 44.356V40H296.136V44.356H292Z" fill="#F13024"/>
<path d="M17.8514 41.552C18.0327 41.892 18.044 42.232 17.8854 42.572C17.772 42.9347 17.5794 43.2067 17.3074 43.388C17.1714 43.5013 17.0467 43.6033 16.9334 43.694C16.82 43.762 16.6954 43.8187 16.5594 43.864C16.31 44 16.0154 44.0453 15.6754 44C15.5394 44 15.4147 43.9773 15.3014 43.932C15.188 43.8867 15.0747 43.83 14.9614 43.762C14.848 43.694 14.7234 43.626 14.5874 43.558C14.474 43.4673 14.3607 43.3767 14.2474 43.286C14.1114 43.1727 13.9867 43.0707 13.8734 42.98C13.76 42.8893 13.658 42.7873 13.5674 42.674C13.454 42.5607 13.352 42.4473 13.2614 42.334C13.1707 42.2207 13.08 42.1187 12.9894 42.028L12.5814 41.586L6.05335 34.752L6.15535 41.586V41.892C6.15535 41.9827 6.14402 42.0847 6.12135 42.198C6.09868 42.2887 6.07602 42.3907 6.05335 42.504C5.98535 42.7987 5.90602 43.0593 5.81535 43.286C5.77002 43.422 5.70202 43.5353 5.61135 43.626C5.54335 43.7167 5.46402 43.8073 5.37335 43.898C5.12402 44.1247 4.82935 44.2493 4.48935 44.272C4.14935 44.3853 3.83202 44.4193 3.53735 44.374C3.26535 44.3513 2.98202 44.272 2.68735 44.136C2.46068 44 2.25668 43.7733 2.07535 43.456C2.03002 43.3653 1.99602 43.3087 1.97335 43.286C1.97335 43.2633 1.95068 43.184 1.90535 43.048C1.76935 42.8213 1.70135 42.5947 1.70135 42.368C1.67868 42.232 1.65602 42.1073 1.63335 41.994C1.63335 41.8807 1.62202 41.756 1.59935 41.62C1.57668 41.5293 1.56535 41.4387 1.56535 41.348C1.56535 41.2573 1.56535 41.1667 1.56535 41.076C1.58802 40.9627 1.59935 40.872 1.59935 40.804C1.59935 40.7133 1.59935 40.6113 1.59935 40.498L1.56535 37.812L1.53135 32.814C1.53135 31.3633 1.49735 29.7993 1.42935 28.122C1.40668 27.306 1.39535 26.5807 1.39535 25.946C1.39535 25.3113 1.40668 24.5973 1.42935 23.804V23.668C1.47468 23.4187 1.49735 23.1807 1.49735 22.954C1.49735 22.7047 1.50868 22.4667 1.53135 22.24C1.53135 21.7867 1.63335 21.3333 1.83735 20.88C1.97335 20.54 2.21135 20.268 2.55135 20.064C2.73268 19.9507 2.90268 19.8827 3.06135 19.86C3.24268 19.8147 3.43535 19.7693 3.63935 19.724C3.79802 19.724 3.94535 19.7353 4.08135 19.758C4.24002 19.7807 4.38735 19.8033 4.52335 19.826C4.81802 19.8713 5.09002 19.996 5.33935 20.2C5.40735 20.268 5.46402 20.3473 5.50935 20.438C5.57735 20.5287 5.63402 20.642 5.67935 20.778C5.79268 20.9593 5.87202 21.22 5.91735 21.56C5.94002 21.696 5.95135 21.832 5.95135 21.968C5.97402 22.104 5.98535 22.2513 5.98535 22.41V23.804L6.01935 27.952C6.38202 27.6347 6.73335 27.306 7.07335 26.966C7.43602 26.626 7.78735 26.2633 8.12735 25.878C8.73935 25.2433 9.34002 24.6313 9.92935 24.042C10.5414 23.43 11.1534 22.8293 11.7654 22.24L11.8674 22.138C12.0487 21.9567 12.23 21.7867 12.4114 21.628C12.6154 21.4467 12.808 21.2767 12.9894 21.118C13.3294 20.7327 13.7487 20.4607 14.2474 20.302C14.5647 20.098 14.9387 20.0187 15.3694 20.064C15.5734 20.0867 15.7547 20.132 15.9134 20.2C16.0947 20.268 16.2647 20.3587 16.4234 20.472C16.5367 20.5853 16.65 20.6873 16.7634 20.778C16.8767 20.846 16.9674 20.9367 17.0354 21.05C17.2167 21.2087 17.33 21.4467 17.3754 21.764C17.3754 22.0133 17.33 22.24 17.2394 22.444C17.1714 22.5573 17.1034 22.6707 17.0354 22.784C16.9674 22.8973 16.888 23.0107 16.7974 23.124C16.684 23.26 16.582 23.3847 16.4914 23.498C16.4007 23.6113 16.2987 23.7247 16.1854 23.838C16.0947 23.9513 15.9927 24.0533 15.8794 24.144C15.7887 24.2347 15.698 24.3367 15.6074 24.45L15.1654 24.892L8.80735 31.386C9.14735 31.726 9.49868 32.0887 9.86135 32.474C10.2467 32.8367 10.6094 33.1993 10.9494 33.562C11.2894 33.902 11.6067 34.2307 11.9014 34.548C12.196 34.8427 12.4454 35.092 12.6494 35.296C13.2614 35.9307 13.8507 36.5653 14.4174 37.2C14.984 37.812 15.5394 38.4353 16.0834 39.07L16.1854 39.172C16.3667 39.3533 16.5367 39.546 16.6954 39.75C16.854 39.9313 17.0014 40.1127 17.1374 40.294C17.4774 40.6793 17.7154 41.0987 17.8514 41.552ZM25.3274 28.632C26.0754 28.2693 26.8574 28.0087 27.6734 27.85C28.4894 27.6913 29.294 27.6573 30.0874 27.748C30.9034 27.8387 31.6854 28.054 32.4334 28.394C33.204 28.734 33.9067 29.21 34.5414 29.822C35.0627 30.3433 35.516 30.978 35.9014 31.726C36.2867 32.4513 36.57 33.1653 36.7514 33.868C37.1367 35.1147 37.1934 36.3727 36.9214 37.642C36.6494 38.9113 36.1847 40.09 35.5274 41.178C35.21 41.6767 34.8134 42.13 34.3374 42.538C33.884 42.9233 33.3967 43.2407 32.8754 43.49C32.1954 43.8073 31.4587 44.0227 30.6654 44.136C29.872 44.272 29.1014 44.306 28.3534 44.238C26.9934 44.17 25.792 43.83 24.7494 43.218C23.7294 42.606 22.902 41.824 22.2674 40.872C21.6554 39.92 21.2474 38.8433 21.0434 37.642C20.862 36.418 20.9414 35.1713 21.2814 33.902C21.644 32.542 22.1654 31.4427 22.8454 30.604C23.548 29.7427 24.3754 29.0853 25.3274 28.632ZM26.3474 33.188C26.0074 33.5053 25.7467 33.902 25.5654 34.378C25.384 34.854 25.2707 35.3527 25.2254 35.874C25.18 36.3727 25.214 36.8827 25.3274 37.404C25.4634 37.9027 25.6674 38.356 25.9394 38.764C26.166 39.104 26.574 39.3873 27.1634 39.614C27.7527 39.8407 28.3647 39.9767 28.9994 40.022C29.7247 40.0673 30.3594 39.8747 30.9034 39.444C31.4474 38.9907 31.8554 38.4353 32.1274 37.778C32.422 37.1207 32.558 36.4067 32.5354 35.636C32.5127 34.8653 32.3087 34.1627 31.9234 33.528C31.6514 33.0747 31.266 32.746 30.7674 32.542C30.2914 32.3153 29.7814 32.202 29.2374 32.202C28.716 32.1793 28.1947 32.2587 27.6734 32.44C27.152 32.5987 26.71 32.848 26.3474 33.188ZM50.3067 38.016C49.8761 37.744 49.3887 37.5287 48.8447 37.37C48.3234 37.2113 47.7794 37.064 47.2127 36.928C46.6687 36.792 46.1361 36.6447 45.6147 36.486C45.0934 36.3047 44.6174 36.0553 44.1867 35.738C43.2574 35.0353 42.7134 34.174 42.5547 33.154C42.4187 32.1113 42.6454 31.0687 43.2347 30.026C43.5521 29.482 43.9714 29.04 44.4927 28.7C45.0141 28.3373 45.5807 28.0653 46.1927 27.884C46.8274 27.68 47.4734 27.5667 48.1307 27.544C48.7881 27.5213 49.4114 27.5553 50.0007 27.646C50.3861 27.714 50.7941 27.816 51.2247 27.952C51.6554 28.0653 52.0521 28.224 52.4147 28.428C52.8001 28.632 53.1401 28.8927 53.4347 29.21C53.7521 29.5047 53.9787 29.8787 54.1147 30.332C54.2054 30.6267 54.2167 30.91 54.1487 31.182C54.1034 31.454 53.9901 31.6807 53.8087 31.862C53.6501 32.0433 53.4347 32.1793 53.1627 32.27C52.9134 32.3607 52.6414 32.3833 52.3467 32.338C52.0067 32.27 51.6894 32.168 51.3947 32.032C51.1001 31.896 50.8054 31.7487 50.5107 31.59C50.2161 31.4313 49.9101 31.2953 49.5927 31.182C49.2981 31.0687 48.9807 31.012 48.6407 31.012C48.1194 30.9893 47.6887 31.08 47.3487 31.284C47.0087 31.488 46.7707 31.7373 46.6347 32.032C46.5214 32.3267 46.5327 32.644 46.6687 32.984C46.8274 33.324 47.1447 33.6187 47.6207 33.868C48.0514 34.0947 48.5274 34.276 49.0487 34.412C49.5701 34.548 50.0801 34.684 50.5787 34.82C51.1001 34.956 51.5987 35.1147 52.0747 35.296C52.5734 35.4773 53.0154 35.7267 53.4007 36.044C54.1487 36.656 54.6021 37.37 54.7607 38.186C54.9421 39.002 54.8967 39.8067 54.6247 40.6C54.3527 41.3933 53.8767 42.096 53.1967 42.708C52.5394 43.32 51.7574 43.728 50.8507 43.932C50.1934 44.068 49.4794 44.136 48.7087 44.136C47.9607 44.136 47.2127 44.0567 46.4647 43.898C45.7394 43.7393 45.0367 43.49 44.3567 43.15C43.6994 42.81 43.1441 42.3793 42.6907 41.858C42.3734 41.4953 42.2034 41.0873 42.1807 40.634C42.1807 40.158 42.2714 39.75 42.4527 39.41C42.6567 39.0473 42.9401 38.798 43.3027 38.662C43.6654 38.526 44.0734 38.6053 44.5267 38.9C44.8894 39.1493 45.3201 39.3987 45.8187 39.648C46.3174 39.8747 46.8161 40.056 47.3147 40.192C47.8134 40.328 48.2894 40.396 48.7427 40.396C49.2187 40.396 49.6267 40.294 49.9667 40.09C50.4654 39.7727 50.7261 39.41 50.7487 39.002C50.7714 38.5713 50.6241 38.2427 50.3067 38.016ZM73.0573 29.006C73.2386 29.4367 73.2499 29.9127 73.0913 30.434C72.9553 30.9553 72.6946 31.2953 72.3093 31.454C72.1053 31.5447 71.8333 31.624 71.4933 31.692C71.1533 31.7373 70.7793 31.7827 70.3713 31.828C69.9859 31.8733 69.6006 31.9073 69.2153 31.93C68.8299 31.9527 68.5013 31.964 68.2293 31.964C68.2519 32.644 68.2746 33.3467 68.2973 34.072C68.3199 34.7747 68.3426 35.466 68.3653 36.146C68.3879 36.826 68.3993 37.4833 68.3993 38.118C68.3993 38.73 68.3879 39.2853 68.3653 39.784C68.3653 40.124 68.3653 40.5207 68.3653 40.974C68.3653 41.4047 68.3313 41.824 68.2633 42.232C68.2179 42.64 68.1386 43.0027 68.0253 43.32C67.9119 43.6147 67.7419 43.8073 67.5153 43.898C66.8126 44.1927 66.1666 44.272 65.5773 44.136C65.0106 44.0227 64.6026 43.7847 64.3533 43.422C64.1719 43.1273 64.0359 42.7873 63.9453 42.402C63.8546 41.994 63.7866 41.586 63.7413 41.178C63.7186 40.7473 63.7073 40.3393 63.7073 39.954C63.7299 39.546 63.7413 39.1947 63.7413 38.9C63.7639 37.948 63.7753 36.8713 63.7753 35.67C63.7979 34.446 63.8093 33.222 63.8093 31.998H63.2993C63.0273 31.998 62.6759 31.998 62.2453 31.998C61.8373 31.9753 61.4179 31.9413 60.9873 31.896C60.5793 31.828 60.1939 31.7487 59.8313 31.658C59.4686 31.5447 59.2079 31.386 59.0493 31.182C58.7999 30.8873 58.6413 30.57 58.5733 30.23C58.5279 29.89 58.5506 29.5727 58.6413 29.278C58.7546 28.9607 58.9246 28.6887 59.1513 28.462C59.3779 28.2127 59.6386 28.054 59.9333 27.986C60.3413 27.8727 60.9193 27.816 61.6673 27.816C62.4153 27.7933 63.1179 27.7933 63.7753 27.816C63.7526 27.5893 63.7413 27.374 63.7413 27.17C63.7413 26.9433 63.7299 26.728 63.7073 26.524C63.6846 26.252 63.6733 25.912 63.6733 25.504C63.6733 25.0733 63.6959 24.654 63.7413 24.246C63.8093 23.8153 63.9113 23.4187 64.0473 23.056C64.1833 22.6707 64.3759 22.376 64.6253 22.172C64.9653 21.9 65.3053 21.7527 65.6453 21.73C66.0079 21.6847 66.3366 21.73 66.6313 21.866C66.9486 22.002 67.2093 22.206 67.4133 22.478C67.6399 22.7273 67.7986 23.0107 67.8893 23.328C67.9573 23.6 68.0139 23.9287 68.0593 24.314C68.1046 24.6767 68.1273 25.062 68.1273 25.47C68.1499 25.878 68.1613 26.286 68.1613 26.694C68.1613 27.102 68.1613 27.476 68.1613 27.816H68.5013C68.8413 27.816 69.2379 27.8047 69.6913 27.782C70.1446 27.7593 70.5866 27.7707 71.0173 27.816C71.4706 27.8613 71.8786 27.9747 72.2413 28.156C72.6039 28.3147 72.8759 28.598 73.0573 29.006ZM92.828 28.836C93.032 29.1533 93.1227 29.4933 93.1 29.856C93.1 30.3773 93.0093 30.8307 92.828 31.216C92.7827 31.3293 92.7147 31.4767 92.624 31.658C92.556 31.8393 92.4767 32.032 92.386 32.236C92.318 32.44 92.2387 32.6327 92.148 32.814C92.0573 32.9953 91.9893 33.1313 91.944 33.222L91.876 33.392C91.5587 34.0947 91.2527 34.7747 90.958 35.432C90.6633 36.0893 90.3347 36.792 89.972 37.54C89.6093 38.2653 89.258 38.9793 88.918 39.682C88.6007 40.362 88.2833 41.0307 87.966 41.688C87.8753 41.8693 87.796 42.0507 87.728 42.232C87.66 42.3907 87.5693 42.5607 87.456 42.742L85.824 46.244C85.5293 46.8333 85.246 47.4113 84.974 47.978C84.7247 48.5447 84.4413 49.1113 84.124 49.678C84.056 49.7913 83.988 49.8933 83.92 49.984C83.8747 50.0973 83.8293 50.2107 83.784 50.324C83.6253 50.596 83.3873 50.8567 83.07 51.106C82.7753 51.378 82.458 51.5253 82.118 51.548C81.506 51.5933 80.9733 51.412 80.52 51.004C80.248 50.8453 80.0327 50.6187 79.874 50.324C79.7833 50.12 79.738 49.8593 79.738 49.542C79.7607 49.406 79.772 49.27 79.772 49.134C79.7947 49.0207 79.8173 48.9073 79.84 48.794C79.8853 48.6807 79.9193 48.5673 79.942 48.454C79.9647 48.3407 79.9987 48.25 80.044 48.182C80.112 48.0007 80.1687 47.91 80.214 47.91L82.696 42.538C82.5827 42.2887 82.4693 42.0393 82.356 41.79C82.2427 41.518 82.1407 41.28 82.05 41.076C81.7553 40.3733 81.438 39.6367 81.098 38.866C80.7807 38.0727 80.452 37.2907 80.112 36.52C79.772 35.7267 79.4207 34.956 79.058 34.208C78.6953 33.46 78.3327 32.746 77.97 32.066C77.834 31.8393 77.7093 31.6013 77.596 31.352C77.4827 31.08 77.392 30.8193 77.324 30.57C77.256 30.298 77.2333 30.026 77.256 29.754C77.2787 29.482 77.3807 29.21 77.562 28.938C77.7433 28.598 77.9813 28.36 78.276 28.224C78.5707 28.0653 78.8767 27.9973 79.194 28.02C79.534 28.02 79.8513 28.088 80.146 28.224C80.4407 28.36 80.6787 28.5413 80.86 28.768C81.2453 29.176 81.5513 29.6293 81.778 30.128C82.0047 30.6267 82.22 31.1367 82.424 31.658C82.8547 32.5647 83.2967 33.5167 83.75 34.514C84.2033 35.5113 84.6567 36.486 85.11 37.438L86.878 33.698C87.0593 33.3353 87.218 32.984 87.354 32.644C87.5127 32.304 87.6713 31.9753 87.83 31.658C88.0113 31.2727 88.1813 30.876 88.34 30.468C88.5213 30.06 88.7253 29.686 88.952 29.346C88.9973 29.2553 89.0427 29.176 89.088 29.108C89.1333 29.04 89.1787 28.9607 89.224 28.87C89.428 28.598 89.6093 28.3827 89.768 28.224C89.8813 28.1333 89.972 28.0653 90.04 28.02C90.1307 27.952 90.2327 27.9067 90.346 27.884C90.5047 27.8387 90.652 27.816 90.788 27.816C90.9467 27.7933 91.094 27.7933 91.23 27.816C91.4567 27.884 91.7287 27.986 92.046 28.122C92.386 28.258 92.6467 28.496 92.828 28.836ZM100.746 29.686C101.426 29.346 102.14 29.108 102.888 28.972C103.636 28.8133 104.373 28.7793 105.098 28.87C105.846 28.938 106.56 29.1307 107.24 29.448C107.92 29.7427 108.555 30.1733 109.144 30.74C109.733 31.3293 110.187 31.9753 110.504 32.678C110.821 33.3807 111.048 34.1627 111.184 35.024C111.275 35.6133 111.422 36.1573 111.626 36.656C111.83 37.1547 112.045 37.6533 112.272 38.152C112.521 38.6507 112.748 39.1493 112.952 39.648C113.179 40.1467 113.36 40.668 113.496 41.212C113.609 41.7333 113.564 42.2433 113.36 42.742C113.179 43.218 112.793 43.5127 112.204 43.626C111.864 43.694 111.535 43.6713 111.218 43.558C110.923 43.422 110.651 43.2407 110.402 43.014C110.153 42.7647 109.926 42.504 109.722 42.232C109.541 41.9373 109.371 41.6653 109.212 41.416C108.691 42.096 108.124 42.6287 107.512 43.014C106.9 43.3767 106.163 43.6147 105.302 43.728C104.577 43.8187 103.885 43.8413 103.228 43.796C102.571 43.7507 101.868 43.626 101.12 43.422C100.145 43.1727 99.3407 42.742 98.706 42.13C98.094 41.4953 97.618 40.77 97.278 39.954C96.9607 39.1153 96.7907 38.22 96.768 37.268C96.7453 36.316 96.8587 35.3753 97.108 34.446C97.4253 33.222 97.9013 32.2247 98.536 31.454C99.1707 30.6833 99.9073 30.094 100.746 29.686ZM101.596 33.664C101.279 33.9813 101.029 34.3553 100.848 34.786C100.667 35.2167 100.553 35.67 100.508 36.146C100.485 36.622 100.531 37.098 100.644 37.574C100.757 38.05 100.939 38.4693 101.188 38.832C101.415 39.1493 101.8 39.4213 102.344 39.648C102.888 39.852 103.455 39.9767 104.044 40.022C104.724 40.0673 105.313 39.886 105.812 39.478C106.333 39.07 106.719 38.56 106.968 37.948C107.24 37.3133 107.365 36.6447 107.342 35.942C107.319 35.2167 107.127 34.5593 106.764 33.97C106.492 33.5393 106.129 33.222 105.676 33.018C105.245 32.814 104.781 32.712 104.282 32.712C103.783 32.6893 103.285 32.7687 102.786 32.95C102.31 33.1087 101.913 33.3467 101.596 33.664Z" fill="white"/>
<path d="M140.116 25.7437C140.503 25.3892 140.696 25.1528 140.696 25.0347C140.696 24.9165 140.589 24.8521 140.374 24.8413C140.159 24.8198 139.874 24.8091 139.52 24.8091H138.698V23.2139C139.053 23.2354 139.461 23.2515 139.923 23.2622C140.395 23.2622 140.863 23.2622 141.325 23.2622C141.572 23.2622 141.813 23.2622 142.05 23.2622C142.286 23.2515 142.512 23.2461 142.727 23.2461L146.304 23.2139V24.8091C146.046 24.8091 145.815 24.8091 145.611 24.8091C145.417 24.7983 145.24 24.793 145.079 24.793C144.811 24.793 144.58 24.8145 144.386 24.8574C144.193 24.8896 143.983 24.9648 143.758 25.083C143.543 25.2012 143.285 25.3784 142.984 25.6147C142.694 25.8511 142.318 26.168 141.856 26.5654L135.008 32.624L143.468 41.5024C143.693 41.7495 143.897 41.9375 144.08 42.0664C144.263 42.1846 144.467 42.2705 144.692 42.3242C144.918 42.3672 145.186 42.394 145.498 42.4048C145.82 42.4048 146.234 42.4048 146.739 42.4048V44C146.169 44 145.514 43.9946 144.773 43.9839C144.042 43.9731 143.274 43.9678 142.469 43.9678C142.093 43.9678 141.711 43.9731 141.325 43.9839C140.938 43.9839 140.562 43.9839 140.197 43.9839C139.832 43.9839 139.482 43.9893 139.149 44C138.827 44 138.537 44 138.279 44V42.4048H140.019C140.299 42.4048 140.503 42.3994 140.632 42.3887C140.761 42.3779 140.825 42.335 140.825 42.2598C140.825 42.1953 140.782 42.1094 140.696 42.002C140.621 41.8945 140.492 41.7441 140.31 41.5508L133.139 33.9614L132.076 34.8477V41.3574C132.076 41.5508 132.081 41.7173 132.092 41.8569C132.113 41.9858 132.183 42.0933 132.301 42.1792C132.43 42.2544 132.623 42.3135 132.881 42.3564C133.15 42.3887 133.531 42.4048 134.025 42.4048H134.831V44C134.262 44 133.617 43.9946 132.897 43.9839C132.178 43.9731 131.415 43.9678 130.609 43.9678C129.868 43.9678 129.116 43.9731 128.353 43.9839C127.602 43.9946 126.952 44 126.404 44V42.4048H127.193C127.677 42.4048 128.047 42.3779 128.305 42.3242C128.574 42.2598 128.767 42.1792 128.885 42.0825C129.014 41.9858 129.089 41.873 129.111 41.7441C129.132 41.6045 129.143 41.4595 129.143 41.3091V26.0176C129.143 25.792 129.127 25.604 129.095 25.4536C129.073 25.3032 128.998 25.1797 128.869 25.083C128.751 24.9863 128.558 24.9165 128.289 24.8735C128.031 24.8306 127.666 24.8091 127.193 24.8091H126.404V23.2139C126.952 23.2354 127.483 23.2515 127.999 23.2622C128.525 23.2729 129.046 23.2783 129.562 23.2783C129.723 23.2783 129.879 23.2783 130.029 23.2783C130.19 23.2676 130.352 23.2622 130.513 23.2622C130.556 23.2622 130.685 23.2622 130.899 23.2622C131.114 23.2622 131.372 23.2622 131.673 23.2622C131.974 23.2515 132.296 23.2461 132.64 23.2461C132.994 23.2354 133.327 23.23 133.639 23.23C133.95 23.2192 134.219 23.2139 134.444 23.2139C134.67 23.2139 134.81 23.2139 134.863 23.2139V24.8091H134.025C133.542 24.8091 133.166 24.8413 132.897 24.9058C132.64 24.9702 132.446 25.0562 132.317 25.1636C132.199 25.2603 132.129 25.3784 132.108 25.5181C132.086 25.6577 132.076 25.8081 132.076 25.9692V32.9302L140.116 25.7437ZM163.792 40.3906C163.792 40.9492 163.808 41.3789 163.841 41.6797C163.884 41.9697 163.959 42.1846 164.066 42.3242C164.174 42.4531 164.324 42.5283 164.517 42.5498C164.722 42.5605 164.985 42.5659 165.307 42.5659H166.032V44C165.183 44 164.34 44.0054 163.502 44.0161C162.675 44.0269 161.902 44.043 161.182 44.0645V41.8569C160.537 42.6841 159.769 43.3071 158.878 43.7261C157.997 44.1343 156.966 44.3384 155.784 44.3384C155.011 44.3384 154.312 44.2256 153.689 44C153.066 43.7852 152.535 43.4844 152.094 43.0977C151.654 42.7109 151.31 42.249 151.063 41.7119C150.827 41.1748 150.708 40.584 150.708 39.9395C150.708 39.252 150.848 38.6289 151.127 38.0703C151.407 37.501 151.815 37.0176 152.352 36.6201C152.889 36.2227 153.539 35.9165 154.302 35.7017C155.075 35.4761 155.956 35.3633 156.944 35.3633C157.621 35.3633 158.303 35.417 158.991 35.5244C159.678 35.6211 160.376 35.7607 161.085 35.9434V33.623C161.085 32.6455 160.758 31.8989 160.102 31.3833C159.458 30.8677 158.464 30.6099 157.121 30.6099C155.994 30.6099 155.107 30.8301 154.463 31.2705C153.829 31.7002 153.405 32.3716 153.19 33.2847L151.707 33.1074L151.917 30.2715C152.604 29.96 153.405 29.7075 154.318 29.5142C155.242 29.3101 156.278 29.208 157.428 29.208C158.566 29.208 159.538 29.3101 160.344 29.5142C161.15 29.7183 161.805 30.0298 162.31 30.4487C162.826 30.8677 163.202 31.4048 163.438 32.0601C163.674 32.7046 163.792 33.4673 163.792 34.3481V40.3906ZM157.557 36.7168C156.912 36.7168 156.332 36.792 155.816 36.9424C155.301 37.082 154.86 37.2861 154.495 37.5547C154.141 37.8232 153.867 38.1509 153.673 38.5376C153.48 38.9243 153.383 39.3647 153.383 39.8589C153.383 40.2993 153.458 40.6914 153.609 41.0352C153.77 41.3682 153.99 41.6528 154.269 41.8892C154.559 42.1255 154.903 42.3135 155.301 42.4531C155.698 42.5928 156.133 42.6572 156.606 42.6465C157.121 42.6572 157.642 42.582 158.169 42.4209C158.706 42.249 159.189 42.0127 159.619 41.7119C160.049 41.4004 160.398 41.0137 160.666 40.5518C160.946 40.0791 161.085 39.5151 161.085 38.8599V37.2808C160.441 37.0981 159.829 36.9585 159.248 36.8618C158.668 36.7651 158.104 36.7168 157.557 36.7168ZM182.941 29.5947V31.5122L172.918 42.437H180.202C180.502 42.437 180.749 42.4316 180.943 42.4209C181.136 42.3994 181.292 42.3403 181.41 42.2437C181.528 42.1362 181.609 41.9697 181.652 41.7441C181.705 41.5078 181.732 41.1748 181.732 40.7451V39.8911C181.732 39.6763 181.727 39.4829 181.716 39.311C181.716 39.1284 181.716 39.0317 181.716 39.021H183.118V44H170.066V42.0664L180.089 31.1577H173.015C172.746 31.1577 172.537 31.2061 172.387 31.3027C172.236 31.3887 172.123 31.5498 172.048 31.7861C171.973 32.0117 171.925 32.3286 171.903 32.7368C171.892 33.145 171.887 33.6714 171.887 34.3159H170.501V29.5947H182.941ZM199.93 35.4116C199.93 34.7026 199.892 34.0688 199.817 33.5103C199.753 32.9409 199.618 32.4575 199.414 32.0601C199.21 31.6626 198.92 31.3672 198.544 31.1738C198.168 30.9805 197.674 30.8838 197.062 30.8838C196.546 30.8838 196.084 30.9536 195.676 31.0933C195.268 31.2329 194.892 31.4209 194.548 31.6572C194.204 31.8936 193.877 32.1621 193.565 32.4629C193.264 32.7637 192.948 33.0967 192.615 33.4619V40.2456C192.615 40.8579 192.609 41.3252 192.598 41.6475C192.598 41.9697 192.668 42.2007 192.808 42.3403C192.958 42.4692 193.2 42.5391 193.533 42.5498C193.877 42.5605 194.371 42.5659 195.015 42.5659V44C194.736 44 194.462 44 194.194 44C193.925 44 193.646 44 193.356 44C193.066 44 192.76 44 192.437 44C192.115 43.9893 191.761 43.9785 191.374 43.9678C190.59 43.9678 189.897 43.9731 189.295 43.9839C188.694 43.9946 188.092 44 187.491 44V42.5659C188.081 42.5659 188.538 42.5498 188.86 42.5176C189.182 42.4746 189.419 42.4209 189.569 42.3564C189.72 42.2812 189.805 42.1899 189.827 42.0825C189.859 41.9644 189.875 41.8247 189.875 41.6636V31.7539C189.875 31.582 189.832 31.4478 189.746 31.3511C189.671 31.2437 189.542 31.1685 189.36 31.1255C189.177 31.0718 188.935 31.0396 188.635 31.0288C188.345 31.0181 187.99 31.0127 187.571 31.0127V29.5786C187.786 29.5786 187.995 29.584 188.199 29.5947C188.414 29.5947 188.672 29.5947 188.973 29.5947C189.553 29.5947 190.128 29.5894 190.697 29.5786C191.277 29.5571 191.857 29.5356 192.437 29.5142V31.8989C193.157 31.0503 193.995 30.395 194.951 29.9331C195.907 29.4712 196.96 29.2295 198.109 29.208C199.065 29.208 199.914 29.4443 200.655 29.917C201.407 30.3896 201.971 31.0771 202.347 31.9795C203.131 31.0986 204.007 30.4165 204.973 29.9331C205.94 29.4497 206.971 29.208 208.067 29.208C209.045 29.2295 209.834 29.4014 210.436 29.7236C211.048 30.0459 211.515 30.4971 211.838 31.0771C212.171 31.6572 212.391 32.3555 212.498 33.1719C212.616 33.9883 212.681 34.9014 212.692 35.9111V41.8247C212.692 42.0073 212.729 42.147 212.804 42.2437C212.88 42.3296 213.003 42.394 213.175 42.437C213.358 42.48 213.594 42.5068 213.884 42.5176C214.174 42.5176 214.534 42.5229 214.964 42.5337V44C214.362 44 213.761 43.9946 213.159 43.9839C212.568 43.9731 211.886 43.9678 211.113 43.9678C210.737 43.9678 210.393 43.9731 210.081 43.9839C209.77 43.9839 209.474 43.9839 209.195 43.9839C208.916 43.9839 208.642 43.9893 208.373 44C208.105 44 207.831 44 207.552 44V42.5337C208.013 42.5229 208.4 42.5122 208.712 42.5015C209.023 42.48 209.27 42.4424 209.453 42.3887C209.636 42.3242 209.764 42.2383 209.84 42.1309C209.926 42.0127 209.969 41.8462 209.969 41.6313V35.4116C209.969 34.6489 209.931 33.9829 209.856 33.4136C209.781 32.8442 209.636 32.3716 209.421 31.9956C209.217 31.6089 208.927 31.3296 208.551 31.1577C208.175 30.9751 207.686 30.8838 207.084 30.8838C206.558 30.8838 206.085 30.9697 205.666 31.1416C205.247 31.3027 204.861 31.5068 204.506 31.7539C204.152 31.9902 203.824 32.2588 203.523 32.5596C203.233 32.8496 202.965 33.1611 202.718 33.4941C202.696 33.8809 202.68 34.2729 202.669 34.6704C202.658 35.0679 202.653 35.4761 202.653 35.895V41.7764C202.653 41.9697 202.685 42.1201 202.75 42.2275C202.825 42.3242 202.943 42.3994 203.104 42.4531C203.276 42.4961 203.507 42.5229 203.797 42.5337C204.098 42.5444 204.474 42.5552 204.925 42.5659V44C204.657 44 204.393 44 204.136 44C203.878 44 203.609 44 203.33 44C203.061 44 202.771 44 202.46 44C202.148 43.9893 201.804 43.9785 201.428 43.9678C201.031 43.9678 200.66 43.9731 200.317 43.9839C199.984 43.9839 199.661 43.9839 199.35 43.9839C199.038 43.9839 198.732 43.9893 198.431 44C198.141 44 197.846 44 197.545 44V42.5659C197.996 42.5552 198.372 42.5444 198.673 42.5337C198.985 42.5122 199.232 42.4746 199.414 42.4209C199.608 42.3564 199.742 42.2651 199.817 42.147C199.892 42.0288 199.93 41.873 199.93 41.6797V35.4116ZM222.124 22.811C222.661 22.811 223.085 22.9453 223.397 23.2139C223.708 23.4717 223.864 23.8315 223.864 24.2935C223.864 24.7661 223.708 25.1421 223.397 25.4214C223.096 25.6899 222.672 25.8242 222.124 25.8242C221.587 25.8242 221.168 25.6899 220.867 25.4214C220.566 25.1528 220.416 24.7769 220.416 24.2935C220.416 23.8315 220.566 23.4717 220.867 23.2139C221.168 22.9453 221.587 22.811 222.124 22.811ZM223.816 41.4863C223.816 41.7441 223.859 41.9482 223.945 42.0986C224.03 42.2383 224.17 42.3457 224.363 42.4209C224.557 42.4854 224.804 42.5283 225.105 42.5498C225.416 42.5605 225.792 42.5659 226.233 42.5659V44C225.953 44 225.577 44 225.105 44C224.632 43.9893 224.159 43.9839 223.687 43.9839C223.214 43.9839 222.795 43.9839 222.43 43.9839C222.065 43.9731 221.85 43.9678 221.785 43.9678C221.173 43.9678 220.631 43.9731 220.158 43.9839C219.696 43.9946 219.218 44 218.724 44V42.5659C219.304 42.5659 219.755 42.5498 220.077 42.5176C220.4 42.4854 220.636 42.4316 220.786 42.3564C220.947 42.2812 221.039 42.1792 221.06 42.0503C221.092 41.9106 221.109 41.7334 221.109 41.5186V31.5928C221.109 31.4424 221.066 31.3296 220.98 31.2544C220.905 31.1792 220.776 31.1255 220.593 31.0933C220.41 31.0503 220.169 31.0288 219.868 31.0288C219.578 31.0181 219.223 31.0127 218.804 31.0127V29.5786C219.717 29.5786 220.577 29.5732 221.383 29.5625C222.188 29.5518 222.999 29.5303 223.816 29.498V41.4863ZM241.917 32.6079H240.95C240.735 32.0923 240.466 31.7432 240.144 31.5605C239.822 31.3672 239.382 31.2705 238.823 31.2705C238.297 31.2705 237.813 31.394 237.373 31.6411C236.932 31.8882 236.551 32.2427 236.229 32.7046C235.906 33.1558 235.654 33.7036 235.471 34.3481C235.299 34.9819 235.208 35.6909 235.197 36.4751C235.187 36.4858 235.181 36.6201 235.181 36.8779C235.181 37.125 235.176 37.4365 235.165 37.8125C235.165 38.1885 235.165 38.5967 235.165 39.0371C235.165 39.4668 235.165 39.875 235.165 40.2617C235.165 40.6484 235.165 40.9761 235.165 41.2446C235.165 41.5024 235.165 41.6421 235.165 41.6636C235.165 41.8892 235.208 42.0664 235.294 42.1953C235.391 42.3135 235.547 42.4048 235.761 42.4692C235.976 42.5229 236.261 42.5552 236.615 42.5659C236.97 42.5659 237.405 42.5659 237.921 42.5659V44C237.577 44 237.244 44 236.922 44C236.61 43.9893 236.282 43.9839 235.939 43.9839C235.595 43.9839 235.23 43.9839 234.843 43.9839C234.467 43.9731 234.048 43.9678 233.586 43.9678C233.189 43.9678 232.829 43.9731 232.507 43.9839C232.184 43.9839 231.878 43.9839 231.588 43.9839C231.309 43.9839 231.035 43.9893 230.766 44C230.498 44 230.218 44 229.928 44V42.5659C230.541 42.5659 231.013 42.5552 231.346 42.5337C231.69 42.5015 231.943 42.4478 232.104 42.3726C232.265 42.2974 232.356 42.1899 232.378 42.0503C232.41 41.9106 232.426 41.7334 232.426 41.5186V31.7539C232.426 31.5713 232.394 31.4316 232.329 31.335C232.276 31.2275 232.157 31.1523 231.975 31.1094C231.803 31.0557 231.556 31.0288 231.234 31.0288C230.922 31.0181 230.514 31.0127 230.009 31.0127V29.5786C230.127 29.5786 230.31 29.584 230.557 29.5947C230.815 29.5947 231.067 29.5947 231.314 29.5947H232.265C232.716 29.5947 233.167 29.584 233.618 29.5625C234.08 29.541 234.553 29.5249 235.036 29.5142V32.4468C235.552 31.437 236.266 30.6475 237.179 30.0781C238.103 29.498 239.194 29.208 240.45 29.208C240.923 29.208 241.412 29.2402 241.917 29.3047V32.6079ZM253.621 44.3384C252.6 44.3384 251.784 44.1826 251.171 43.8711C250.559 43.5596 250.087 43.103 249.754 42.5015C249.431 41.8892 249.216 41.1426 249.109 40.2617C249.012 39.3701 248.964 38.3496 248.964 37.2002V32.0923C248.964 31.8237 248.937 31.6143 248.883 31.4639C248.84 31.3135 248.738 31.2061 248.577 31.1416C248.416 31.0771 248.18 31.0396 247.868 31.0288C247.567 31.0181 247.165 31.0127 246.66 31.0127V29.6108C247.132 29.6108 247.573 29.6108 247.981 29.6108C248.389 29.6108 248.787 29.6108 249.173 29.6108C249.571 29.6001 249.968 29.5894 250.366 29.5786C250.774 29.5571 251.209 29.5356 251.671 29.5142V38.022C251.671 38.6987 251.698 39.3271 251.752 39.9072C251.816 40.4873 251.945 40.9814 252.138 41.3896C252.342 41.7979 252.627 42.1094 252.992 42.3242C253.368 42.5391 253.868 42.6465 254.491 42.6465C255.071 42.6465 255.603 42.5874 256.086 42.4692C256.58 42.3403 257.026 42.1631 257.423 41.9375C257.821 41.7012 258.17 41.4219 258.471 41.0996C258.772 40.7773 259.024 40.4443 259.228 40.1006C259.25 39.7031 259.26 39.311 259.26 38.9243C259.26 38.5269 259.26 38.124 259.26 37.7158V32.1729C259.26 31.8828 259.233 31.6626 259.18 31.5122C259.137 31.3511 259.029 31.2329 258.858 31.1577C258.696 31.0825 258.46 31.0396 258.149 31.0288C257.837 31.0181 257.418 31.0127 256.892 31.0127V29.6108C257.708 29.6108 258.541 29.6055 259.389 29.5947C260.249 29.584 261.108 29.5518 261.967 29.498V41.7441C261.967 41.9375 261.994 42.0933 262.048 42.2114C262.102 42.3188 262.209 42.3994 262.37 42.4531C262.542 42.5068 262.778 42.5391 263.079 42.5498C263.38 42.5605 263.777 42.5659 264.272 42.5659V44C263.305 44 262.429 44.0054 261.645 44.0161C260.861 44.0269 260.104 44.043 259.373 44.0645V41.9053C258.632 42.7217 257.773 43.334 256.795 43.7422C255.817 44.1396 254.759 44.3384 253.621 44.3384ZM267.822 42.5659C268.273 42.5552 268.655 42.5444 268.966 42.5337C269.289 42.5122 269.546 42.4692 269.74 42.4048C269.944 42.3296 270.089 42.2222 270.175 42.0825C270.261 41.9321 270.304 41.728 270.304 41.4702V25.4214C270.304 25.2173 270.255 25.0669 270.159 24.9702C270.062 24.8628 269.912 24.7876 269.708 24.7446C269.514 24.6909 269.267 24.6587 268.966 24.6479C268.666 24.6372 268.311 24.6318 267.903 24.6318V23.1816C268.483 23.1816 268.999 23.1816 269.45 23.1816C269.901 23.1816 270.32 23.1816 270.707 23.1816C271.104 23.1709 271.485 23.1602 271.851 23.1494C272.216 23.1387 272.597 23.1279 272.995 23.1172V36.0078L277.345 32.7368C278.43 31.9634 278.973 31.4639 278.973 31.2383C278.973 31.1846 278.93 31.1416 278.844 31.1094C278.758 31.0771 278.64 31.0557 278.489 31.0449C278.35 31.0234 278.178 31.0127 277.974 31.0127C277.78 31.0127 277.576 31.0127 277.361 31.0127L277.41 29.5786C277.968 29.5894 278.462 29.6001 278.892 29.6108C279.333 29.6108 279.735 29.6108 280.101 29.6108C280.702 29.6108 281.314 29.6108 281.938 29.6108C282.571 29.6001 283.302 29.5894 284.129 29.5786V31.0127C283.689 31.0127 283.345 31.0181 283.098 31.0288C282.851 31.0396 282.609 31.0933 282.373 31.1899C282.147 31.2866 281.878 31.4424 281.567 31.6572C281.255 31.8721 280.82 32.189 280.262 32.6079L275.734 35.9595L282.018 41.7441C282.405 42.0986 282.749 42.3296 283.049 42.437C283.361 42.5337 283.694 42.582 284.048 42.582C284.167 42.582 284.285 42.582 284.403 42.582C284.521 42.5713 284.655 42.5659 284.806 42.5659V44C284.279 44 283.758 43.9946 283.243 43.9839C282.727 43.9731 282.168 43.9678 281.567 43.9678C281.169 43.9678 280.799 43.9731 280.455 43.9839C280.122 43.9839 279.794 43.9839 279.472 43.9839C279.15 43.9839 278.828 43.9893 278.505 44C278.194 44 277.872 44 277.539 44V42.5659C278.108 42.5659 278.511 42.5552 278.747 42.5337C278.994 42.5122 279.118 42.437 279.118 42.3081C279.118 42.1899 279.037 42.0503 278.876 41.8892C278.726 41.7173 278.522 41.5132 278.264 41.2769L273.688 37.0713L272.995 37.5225L272.979 41.4863C272.979 41.7119 273.011 41.8945 273.075 42.0342C273.14 42.1738 273.263 42.2866 273.446 42.3726C273.628 42.4478 273.881 42.5015 274.203 42.5337C274.536 42.5552 274.971 42.5659 275.508 42.5659V44C274.95 44 274.38 44 273.8 44C273.231 44 272.576 43.9893 271.835 43.9678C271.781 43.9678 271.587 43.9731 271.254 43.9839C270.932 43.9839 270.562 43.9839 270.143 43.9839C269.724 43.9839 269.294 43.9893 268.854 44C268.424 44 268.08 44 267.822 44V42.5659Z" fill="white"/>
</svg>
